<?xml version="1.0" encoding="UTF-8"?>
<svg xmlns="http://www.w3.org/2000/svg" width="145" height="32" viewBox="0 0 145 32" fill="none">
  <path d="M30.0223 26.68C28.6718 28.5338 26.9448 30.0961 24.9578 31.262C20.0136 28.3705 16.6954 23.0035 16.6954 16.8552H16.6023C16.6023 23.0151 13.2648 28.3977 8.30115 31.2853C3.33753 28.3939 0 23.0112 0 16.8513C0 10.6915 3.33753 5.30884 8.30115 2.42515C10.6956 1.02995 13.4704 0.217697 16.4354 0.178833C16.482 0.178833 16.5247 0.178833 16.5712 0.178833C16.645 0.178833 16.7148 0.178833 16.7847 0.178833C19.7613 0.217697 22.5516 1.03772 24.9539 2.44458C26.0755 3.10138 27.1155 3.88643 28.0508 4.78029C26.0405 7.53573 24.853 10.9324 24.853 14.605C24.853 19.3542 26.8361 23.6408 30.0184 26.6761L30.0223 26.68Z" fill="#2C160A"></path>
  <path d="M58.077 14.605C58.077 20.7649 54.7395 26.1475 49.7759 29.0312C47.3775 30.4264 44.6027 31.2387 41.6416 31.2775C41.595 31.2775 41.5523 31.2775 41.5058 31.2775C41.432 31.2775 41.3622 31.2775 41.2923 31.2775C38.3157 31.2387 35.5254 30.4186 33.1231 29.0118C32.0015 28.355 30.9615 27.5699 30.0262 26.6761C32.0365 23.9206 33.224 20.5239 33.224 16.8513C33.224 12.1022 31.2409 7.81552 28.0586 4.78027C29.4091 2.92647 31.1361 1.36416 33.1231 0.198245C38.0673 3.0897 41.3854 8.45678 41.3854 14.605H41.4786C41.4786 8.44512 44.8161 3.0625 49.7797 0.174927C54.7434 3.0625 58.0809 8.44123 58.0809 14.605H58.077Z" fill="#2C160A"></path>
  <path d="M25.6331 13.7266C25.6331 13.7266 24.1351 18.7672 30.0263 26.6759Z" fill="#2C160A"></path>
  <path d="M28.0547 4.78015C28.0547 4.78015 32.9019 10.0501 32.1335 17.8733Z" fill="#2C160A"></path>
  <path d="M57.1185 0.264267H56.7265V1.2242H56.5092V0.264267H56.1211V0.0466309H57.1185V0.264267Z" fill="#2C160A"></path>
  <path d="M58.3682 1.22809V0.590728L57.9646 1.10373L57.561 0.590728V1.22809H57.3359V0L57.9646 0.742296L58.5895 0V1.22809H58.3682Z" fill="#2C160A"></path>
  <path d="M58.985 1.22813H58.7871V1.0105H58.985V1.22813Z" fill="#2C160A"></path>
  <path d="M65.5767 13.3302V1.54285L74.0563 10.3338V2.16855H75.5V13.9093L67.0048 5.16494V13.3263H65.5767V13.3302Z" fill="#2C160A"></path>
  <path d="M86.188 9.32727C86.188 12.0905 84.1816 13.7538 81.7677 13.7538C79.3538 13.7538 77.3784 12.0905 77.3784 9.32727V2.16858H78.8221V9.31172C78.8221 11.2899 79.9049 12.3237 81.7832 12.3237C83.6615 12.3237 84.7598 11.321 84.7598 9.31172V2.16858H86.188V9.32727Z" fill="#2C160A"></path>
  <path d="M88.0664 3.53269V2.16858H97.3455V3.53269H93.4258V13.3263H91.9822V3.53269H88.0625H88.0664Z" fill="#2C160A"></path>
  <path d="M105.433 13.3147L102.518 9.05911H100.651V13.3302H99.2231V2.16858H103.659C105.196 2.16858 106.934 3.26842 106.934 5.60801C106.934 7.6639 105.603 8.76374 104.237 9.01247L107.152 13.3147H105.429H105.433ZM100.651 7.57063H103.504C105.009 7.57063 105.572 6.66122 105.572 5.60801C105.572 4.55481 105.009 3.67649 103.504 3.67649H100.651V7.57063Z" fill="#2C160A"></path>
  <path d="M110.637 13.3302H109.193V2.16858H110.637V13.3302Z" fill="#2C160A"></path>
  <path d="M112.674 13.3302V1.54285L121.154 10.3338V2.16855H122.598V13.9093L114.102 5.16494V13.3263H112.674V13.3302Z" fill="#2C160A"></path>
  <path d="M133.286 9.32727C133.286 12.0905 131.279 13.7538 128.865 13.7538C126.451 13.7538 124.476 12.0905 124.476 9.32727V2.16858H125.92V9.31172C125.92 11.2899 127.003 12.3237 128.881 12.3237C130.759 12.3237 131.857 11.321 131.857 9.31172V2.16858H133.286V9.32727Z" fill="#2C160A"></path>
  <path d="M135.164 3.53269V2.16858H144.443V3.53269H140.524V13.3263H139.08V3.53269H135.16H135.164Z" fill="#2C160A"></path>
  <path d="M73.5051 26.0697C73.5051 28.5142 71.4482 29.4198 69.3914 29.4198C67.9322 29.4198 66.4458 28.9728 65.6619 28.2811V26.5128C66.3682 27.2823 67.9322 28.0362 69.4069 28.0362C71.1416 28.0362 72.3098 27.0996 72.3098 26.2057C72.3098 23.2249 65.4019 25.4984 65.4019 20.9941C65.4019 18.8722 67.4121 17.9822 69.2555 17.9822C70.5595 17.9822 71.9256 18.3047 72.6319 18.9499L72.5853 20.656C71.6966 19.8399 70.4664 19.3968 69.0848 19.3968C68.3164 19.3968 66.6437 19.7349 66.6437 21.0097C66.6437 24.1149 73.5051 21.8841 73.5051 26.0658V26.0697Z" fill="#2C160A"></path>
  <path d="M75.1934 29.175V17.6324L83.4984 26.2407V18.2465H84.911V29.7424L76.5905 21.1807V29.175H75.1934Z" fill="#2C160A"></path>
  <path d="M94.5621 26.6217L89.191 26.6062L87.9802 29.1712H86.4434L91.8766 17.6753L97.2942 29.1712H95.7729L94.5621 26.6178V26.6217ZM89.8042 25.2693L93.9489 25.2537L91.8766 20.7494L89.8042 25.2693Z" fill="#2C160A"></path>
  <path d="M106.225 28.4521C105.336 29.004 104.292 29.3266 103.171 29.3266C100.008 29.3266 97.4463 26.7888 97.4463 23.6408C97.4463 20.4928 100.008 17.924 103.171 17.924C104.292 17.924 105.336 18.2465 106.225 18.8139V20.489C105.425 19.7661 104.35 19.3502 103.171 19.3502C100.714 19.3502 98.7813 21.2546 98.7813 23.6369C98.7813 26.0193 100.714 27.8964 103.171 27.8964C104.354 27.8964 105.425 27.4961 106.225 26.7888V28.4482V28.4521Z" fill="#2C160A"></path>
  <path d="M115.174 29.1749L110.862 23.9944L109.48 25.5489V29.1749H108.068V18.2465H109.48V23.7496L114.301 18.2465H115.942L111.704 23.0422L116.831 29.1749H115.174Z" fill="#2C160A"></path>
  <path d="M126.005 26.0697C126.005 28.5142 123.948 29.4198 121.891 29.4198C120.432 29.4198 118.946 28.9728 118.162 28.2811V26.5128C118.868 27.2823 120.432 28.0362 121.907 28.0362C123.642 28.0362 124.81 27.0996 124.81 26.2057C124.81 23.2249 117.902 25.4984 117.902 20.9941C117.902 18.8722 119.912 17.9822 121.756 17.9822C123.06 17.9822 124.426 18.3047 125.132 18.9499L125.085 20.656C124.197 19.8399 122.966 19.3968 121.585 19.3968C120.816 19.3968 119.144 19.7349 119.144 21.0097C119.144 24.1149 126.005 21.8841 126.005 26.0658V26.0697Z" fill="#2C160A"></path>
</svg>
